<svg xmlns="http://www.w3.org/2000/svg" viewBox="0 0 104.1 40.8"><defs><style>.a{fill:#ff5000;}.b{fill:#231f20;}</style></defs><g transform="translate(-5.1 -2)"><path class="a" d="M47.4,3.9H43.7L35,26.3,26.1,2.4,16.7,26.3,8.7,4H5.1L16.6,35.4l9.4-24,8.8,24L46.1,7Z"/><path class="a" d="M61.3,19.9A17.546,17.546,0,0,0,56.6,17l-.8-.5-.8-.3A38.958,38.958,0,0,1,51.2,14a3.365,3.365,0,0,1-1.4-3,3.8,3.8,0,0,1,1.5-3.2,5.876,5.876,0,0,1,3.6-1.3,6.042,6.042,0,0,1,2.4.5,7.28,7.28,0,0,1,1.9,1.7l.3.5a2.736,2.736,0,0,1,.4.5L62.5,8a8.332,8.332,0,0,0-3.3-3.4A7.871,7.871,0,0,0,55,3.4a8.723,8.723,0,0,0-6.2,2.2,7.053,7.053,0,0,0-2.4,5.5A5.858,5.858,0,0,0,48.6,16a17.219,17.219,0,0,0,4.7,2.8l.5.3.5.2a29.694,29.694,0,0,1,4.1,2.4,3.955,3.955,0,0,1,1.7,3.4,5.581,5.581,0,0,1-1.7,4.3,5.727,5.727,0,0,1-4.3,1.7,6.01,6.01,0,0,1-3.9-1.4A9.306,9.306,0,0,1,48,25.5l-2,.6-1.3.4a17.3,17.3,0,0,0,1.4,3.4,9.47,9.47,0,0,0,2,2.4,8.811,8.811,0,0,0,6.1,2,9.3,9.3,0,0,0,6.6-2.6,8.914,8.914,0,0,0,2.7-6.5A6.7,6.7,0,0,0,61.3,19.9Z"/><path class="b" d="M92.9,6.9A16.936,16.936,0,0,0,80.9,2h-.2a15.643,15.643,0,0,0-8.4,2.3,16.763,16.763,0,0,0-6.2,6.2,18.105,18.105,0,0,0-2.3,8.6,15.853,15.853,0,0,0,4.9,11.8,16.693,16.693,0,0,0,12,4.9,15.918,15.918,0,0,0,11.9-4.9A16.074,16.074,0,0,0,97.5,19,15.471,15.471,0,0,0,92.9,6.9Zm-.2,19a12.657,12.657,0,0,1-5,5,13.666,13.666,0,0,1-6.9,1.8h-.1a13.3,13.3,0,0,1-9.6-4,13.362,13.362,0,0,1-4-9.7,14.036,14.036,0,0,1,1.8-7,13.333,13.333,0,0,1,5-5,12.717,12.717,0,0,1,6.8-1.9h.1A12.966,12.966,0,0,1,87.6,7a13.33,13.33,0,0,1,5,5,13.511,13.511,0,0,1,1.8,7A13.841,13.841,0,0,1,92.7,25.9Z"/><path class="b" d="M97.5,17.8a22.152,22.152,0,0,1,3.8-.4,6.948,6.948,0,0,1,5.5,2.2,7.17,7.17,0,0,1,2.1,5.2,9.459,9.459,0,0,1-1,4,28.827,28.827,0,0,1-3.9,5l-6.2,6.6h11.4v2.4H92.5l9.4-10a28.154,28.154,0,0,0,3.7-4.5,6.978,6.978,0,0,0,.9-3.2,4.91,4.91,0,0,0-1.5-3.6,5.367,5.367,0,0,0-3.8-1.5,15.012,15.012,0,0,0-3.7.5,10.869,10.869,0,0,0,.1-1.8A3.085,3.085,0,0,1,97.5,17.8Z"/></g></svg>