<svg xmlns="http://www.w3.org/2000/svg" viewBox="0 0 29.5 27.533"><defs><style>.a{fill:#d2ab66;}</style></defs><g transform="translate(0 -0.25)"><path class="a" d="M1.967,23.85H2.95v-.983H1.967a.983.983,0,0,1-.983-.983V2.217a.983.983,0,0,1,.983-.983H23.6a.983.983,0,0,1,.983.983V3.2h.983V2.217A1.967,1.967,0,0,0,23.6.25H1.967A1.967,1.967,0,0,0,0,2.217V21.883A1.967,1.967,0,0,0,1.967,23.85Zm0,0"/><path class="a" d="M62.5,62.75h.983v.983H62.5Zm0,0" transform="translate(-60.533 -60.533)"/><path class="a" d="M125,62.75h.983v.983H125Zm0,0" transform="translate(-121.067 -60.533)"/><path class="a" d="M187.5,62.75h.983v.983H187.5Zm0,0" transform="translate(-181.6 -60.533)"/><path class="a" d="M125,146.883a1.967,1.967,0,0,0,1.967,1.967H148.6a1.967,1.967,0,0,0,1.967-1.967V127.217a1.967,1.967,0,0,0-1.967-1.967H126.967A1.967,1.967,0,0,0,125,127.217Zm.983-19.667a.983.983,0,0,1,.983-.983H148.6a.983.983,0,0,1,.983.983v19.667a.983.983,0,0,1-.983.983H126.967a.983.983,0,0,1-.983-.983Zm0,0" transform="translate(-121.067 -121.067)"/><path class="a" d="M187.5,187.75h.983v.983H187.5Zm0,0" transform="translate(-181.6 -181.6)"/><path class="a" d="M250,187.75h.983v.983H250Zm0,0" transform="translate(-242.133 -181.6)"/><path class="a" d="M312.5,187.75h.983v.983H312.5Zm0,0" transform="translate(-302.667 -181.6)"/><path class="a" d="M187.5,250.25h21.633v.983H187.5Zm0,0" transform="translate(-181.6 -242.133)"/><path class="a" d="M187.5,328.375h3.933v.983H187.5Zm0,0" transform="translate(-181.6 -317.8)"/><path class="a" d="M187.5,390.875h2.95v.983H187.5Zm0,0" transform="translate(-181.6 -378.333)"/><path class="a" d="M425.317,453.375a3.442,3.442,0,1,0,3.442,3.442A3.442,3.442,0,0,0,425.317,453.375Zm0,5.9a2.458,2.458,0,1,1,2.458-2.458A2.458,2.458,0,0,1,425.317,459.275Zm0,0" transform="translate(-408.6 -438.867)"/><path class="a" d="M296.983,319.142a.492.492,0,0,0-.492-.492h-1.3a6.248,6.248,0,0,0-.389-.939l.919-.918a.492.492,0,0,0,0-.7l-2.086-2.086a.492.492,0,0,0-.7,0l-.918.918a6.357,6.357,0,0,0-.939-.388v-1.3a.492.492,0,0,0-.492-.492h-2.95a.492.492,0,0,0-.492.492v1.3a6.358,6.358,0,0,0-.939.388l-.918-.918a.492.492,0,0,0-.7,0l-2.086,2.086a.492.492,0,0,0,0,.7l.918.918c-.041.081-.081.161-.118.243a6.365,6.365,0,0,0-.27.7h-1.3a.492.492,0,0,0-.492.492v2.95a.492.492,0,0,0,.492.492h1.3a6.253,6.253,0,0,0,.389.939l-.919.918a.492.492,0,0,0,0,.7l2.086,2.086a.492.492,0,0,0,.7,0l.918-.918a6.358,6.358,0,0,0,.939.388v1.3a.492.492,0,0,0,.492.492h2.95a.492.492,0,0,0,.492-.492v-1.3a6.357,6.357,0,0,0,.939-.388l.918.918a.492.492,0,0,0,.7,0l2.086-2.086a.492.492,0,0,0,0-.7l-.919-.918a6.249,6.249,0,0,0,.389-.939h1.3a.492.492,0,0,0,.492-.492ZM296,321.6h-1.177a.492.492,0,0,0-.476.369,5.376,5.376,0,0,1-.575,1.39.492.492,0,0,0,.076.6l.831.832-1.39,1.391-.832-.832a.492.492,0,0,0-.6-.076,5.371,5.371,0,0,1-1.39.575.492.492,0,0,0-.369.476V327.5h-1.967v-1.177a.492.492,0,0,0-.369-.476,5.371,5.371,0,0,1-1.39-.575.492.492,0,0,0-.6.076l-.832.832-1.39-1.391.831-.832a.492.492,0,0,0,.076-.6,5.376,5.376,0,0,1-.575-1.39.492.492,0,0,0-.476-.369h-1.177v-1.967h1.177a.492.492,0,0,0,.476-.369,5.344,5.344,0,0,1,.32-.9,5.431,5.431,0,0,1,.256-.492.492.492,0,0,0-.076-.6l-.831-.832,1.39-1.391.832.832a.491.491,0,0,0,.6.075,5.379,5.379,0,0,1,1.39-.575.492.492,0,0,0,.369-.476v-1.175H290.1v1.177a.492.492,0,0,0,.369.476,5.37,5.37,0,0,1,1.39.575.492.492,0,0,0,.6-.076l.832-.832,1.39,1.391-.831.832a.492.492,0,0,0-.076.6,5.376,5.376,0,0,1,.575,1.39.492.492,0,0,0,.476.369H296Zm0,0" transform="translate(-272.4 -302.667)"/><path class="a" d="M781.25,781.5h2.95v.983h-2.95Zm0,0" transform="translate(-756.667 -756.667)"/></g></svg>