<svg xmlns="http://www.w3.org/2000/svg" viewBox="0 0 29.212 18.257"><defs><style>.a{fill:#d2ab66;}</style></defs><g transform="translate(0 -96.003)"><g transform="translate(4.259 97.296)"><path class="a" d="M93.449,129.884c-.573-1.2-2.624-2.854-4.606-4.457-1.105-.893-2.15-1.738-2.815-2.4a.608.608,0,0,0-.637-.142c-.41.149-.663.263-.863.352a2.013,2.013,0,0,1-.817.224.608.608,0,0,0-.445.267,1.861,1.861,0,0,1-2.347.977c-.19-.063-.224-.145-.242-.223a4.024,4.024,0,0,1,1.345-2.61c1.978-1.979,3-2.475,5.152-1.512,2.444,1.093,4.893,1.949,4.917,1.957a.609.609,0,0,0,.4-1.15c-.024-.008-2.425-.847-4.82-1.919-2.791-1.248-4.322-.426-6.509,1.762-.833.833-1.963,2.517-1.671,3.753a1.505,1.505,0,0,0,1.046,1.1,3.045,3.045,0,0,0,3.575-1.224,3.072,3.072,0,0,0,.914-.29c.114-.051.248-.111.426-.183.7.654,1.636,1.414,2.625,2.214,1.789,1.447,3.818,3.088,4.275,4.037a.713.713,0,0,1-.181.914.671.671,0,0,1-.75.147.608.608,0,0,0-.951.566.735.735,0,0,1-.466.685.934.934,0,0,1-.948.022.608.608,0,0,0-1.021.388,1.156,1.156,0,0,1-.718.932.642.642,0,0,1-.7-.108.616.616,0,0,0-.556-.141.608.608,0,0,0-.427.383c-.023.061-.075.207-.645.207a3.5,3.5,0,0,1-1.491-.51c-.427-.281-3.106-2.28-5.42-4.217-.325-.274-.887-.861-1.384-1.379-.441-.46-.843-.878-1.05-1.053a.609.609,0,0,0-.786.93c.189.159.554.545.957.965.543.567,1.1,1.154,1.481,1.47,2.266,1.9,4.99,3.946,5.533,4.3a4.669,4.669,0,0,0,2.16.708,2.1,2.1,0,0,0,1.381-.407,1.894,1.894,0,0,0,1.384-.015,2.4,2.4,0,0,0,1.267-1.17,2.354,2.354,0,0,0,1.528-.22,2.065,2.065,0,0,0,1.016-1.061,1.99,1.99,0,0,0,1.4-.5A1.935,1.935,0,0,0,93.449,129.884Z" transform="translate(-74.642 -118.658)"/></g><g transform="translate(6.086 98.437)"><g transform="translate(0 0)"><path class="a" d="M112.752,138.663h-5.477a.609.609,0,1,0,0,1.217h5.477a.609.609,0,1,0,0-1.217Z" transform="translate(-106.666 -138.663)"/></g></g><g transform="translate(21.955 106.956)"><g transform="translate(0 0)"><path class="a" d="M387.7,288.247a.607.607,0,0,0-.845-.166l-1.779,1.2a.609.609,0,0,0,.679,1.01l1.78-1.2A.609.609,0,0,0,387.7,288.247Z" transform="translate(-384.811 -287.977)"/></g></g><g transform="translate(16.433 106.348)"><g transform="translate(0 0)"><path class="a" d="M292.653,281.1c-.436-.343-2.384-2.338-3.589-3.594a.609.609,0,0,0-.879.842c.313.326,3.072,3.2,3.714,3.709a.606.606,0,0,0,.376.13.615.615,0,0,0,.48-.233A.608.608,0,0,0,292.653,281.1Z" transform="translate(-288.015 -277.317)"/></g></g><g transform="translate(14.606 108.175)"><g transform="translate(0 0)"><path class="a" d="M260.037,312.513c-.729-.583-2.561-2.529-2.975-2.98a.609.609,0,0,0-.9.824c.022.023,2.208,2.383,3.111,3.106a.609.609,0,0,0,.761-.951Z" transform="translate(-256.005 -309.337)"/></g></g><g transform="translate(12.172 109.391)"><path class="a" d="M217.387,333.83c-.868-.732-2.644-2.622-2.991-2.993a.609.609,0,0,0-.89.831c.5.534,2.2,2.336,3.1,3.093a.609.609,0,1,0,.785-.931Z" transform="translate(-213.343 -330.644)"/></g><g transform="translate(0 96.003)"><g transform="translate(0 0)"><path class="a" d="M7.113,97.387C6.07,96.4,1.9,96.079.645,96A.608.608,0,0,0,0,96.612v10.954a.609.609,0,0,0,.609.609H4.26a.608.608,0,0,0,.578-.42c.089-.273,2.186-6.709,2.462-9.874A.605.605,0,0,0,7.113,97.387Zm-3.3,9.571h-2.6V97.264a18.49,18.49,0,0,1,4.833.863A63.86,63.86,0,0,1,3.816,106.958Z" transform="translate(0 -96.003)"/></g></g><g transform="translate(20.713 97.22)"><g transform="translate(0 0)"><path class="a" d="M370.936,117.33a18.991,18.991,0,0,0-7.54,1.274.605.605,0,0,0-.325.379.614.614,0,0,0,.067.494,80.911,80.911,0,0,1,3.56,9.578.608.608,0,0,0,.587.447h3.651a.609.609,0,0,0,.609-.609V117.939A.608.608,0,0,0,370.936,117.33Zm-.609,10.954H367.74c-.577-1.879-2.281-6.78-3.232-8.8a19.822,19.822,0,0,1,5.819-.925Z" transform="translate(-363.046 -117.33)"/></g></g></g></svg>