<svg xmlns="http://www.w3.org/2000/svg" viewBox="0 0 29 19"><defs><style>.a{fill:#d2ab66;}</style></defs><g transform="translate(-11 -21)"><g transform="translate(11 21)"><path class="a" d="M25.5,993.362A14.529,14.529,0,0,0,11.594,1012a.5.5,0,0,0,.484.359H38.922a.5.5,0,0,0,.484-.359A14.529,14.529,0,0,0,25.5,993.362Zm-.687,1.016c.063-.005.124,0,.188,0v2.484a.5.5,0,0,0,1,0v-2.484a13.448,13.448,0,0,1,8.688,3.594l-1.766,1.766a.5.5,0,1,0,.7.7l1.766-1.766a13.448,13.448,0,0,1,3.594,8.688H36.5a.5.5,0,0,0,0,1h2.484a13.618,13.618,0,0,1-.469,3H12.484a13.6,13.6,0,0,1-.469-3H14.5a.5.5,0,0,0,0-1H12.016a13.447,13.447,0,0,1,3.594-8.687l1.766,1.766a.5.5,0,0,0,.7-.7l-1.766-1.766A13.458,13.458,0,0,1,24.813,994.378Zm5.281,8.391a.471.471,0,0,0-.344.141l-3.609,3.609a1.47,1.47,0,0,0-.641-.156,1.5,1.5,0,1,0,1.5,1.5,1.471,1.471,0,0,0-.156-.641l3.609-3.609a.5.5,0,0,0,0-.7.506.506,0,0,0-.359-.141Zm-4.594,4.593a.5.5,0,1,1-.5.5A.493.493,0,0,1,25.5,1007.361Z" transform="translate(-11 -993.362)"/></g></g></svg>