<svg xmlns="http://www.w3.org/2000/svg" viewBox="0 0 24.641 29.888"><defs><style>.a{fill:#d2ab66;}</style></defs><g transform="translate(-44.944)"><g transform="translate(44.944)"><g transform="translate(0)"><path class="a" d="M69.406,7.406,62.179.179A.61.61,0,0,0,61.748,0H47.908a2.968,2.968,0,0,0-2.964,2.964V26.923a2.968,2.968,0,0,0,2.964,2.964H66.62a2.968,2.968,0,0,0,2.964-2.964V7.837A.61.61,0,0,0,69.406,7.406ZM62.358,2.083,67.5,7.227H64.1a1.744,1.744,0,0,1-1.745-1.744Zm6.007,24.841a1.746,1.746,0,0,1-1.744,1.745H47.908a1.746,1.746,0,0,1-1.745-1.745V2.964A1.747,1.747,0,0,1,47.908,1.22H61.138V5.482A2.964,2.964,0,0,0,64.1,8.447h4.262V26.923Z" transform="translate(-44.944 0)"/></g></g><g transform="translate(50.064 17.731)"><g transform="translate(0)"><path class="a" d="M133.545,303.745h-.273a.61.61,0,1,0,0,1.22h.273a.61.61,0,1,0,0-1.22Z" transform="translate(-132.662 -303.745)"/></g></g><g transform="translate(52.311 17.731)"><g transform="translate(0)"><path class="a" d="M182.687,303.745H171.754a.61.61,0,1,0,0,1.22h10.933a.61.61,0,1,0,0-1.22Z" transform="translate(-171.144 -303.745)"/></g></g><g transform="translate(50.064 14.944)"><g transform="translate(0)"><path class="a" d="M133.545,256h-.273a.61.61,0,1,0,0,1.22h.273a.61.61,0,1,0,0-1.22Z" transform="translate(-132.662 -256)"/></g></g><g transform="translate(52.311 14.944)"><g transform="translate(0)"><path class="a" d="M182.687,256H171.754a.61.61,0,1,0,0,1.22h10.933a.61.61,0,1,0,0-1.22Z" transform="translate(-171.144 -256)"/></g></g><g transform="translate(50.064 12.157)"><g transform="translate(0)"><path class="a" d="M133.545,208.255h-.273a.61.61,0,1,0,0,1.22h.273a.61.61,0,1,0,0-1.22Z" transform="translate(-132.662 -208.255)"/></g></g><g transform="translate(52.311 12.157)"><g transform="translate(0)"><path class="a" d="M182.687,208.255H171.754a.61.61,0,1,0,0,1.22h10.933a.61.61,0,1,0,0-1.22Z" transform="translate(-171.144 -208.255)"/></g></g></g></svg>