<svg xmlns="http://www.w3.org/2000/svg" xmlns:xlink="http://www.w3.org/1999/xlink" viewBox="0 0 26.986 26.986"><defs><style>.a{fill:url(#a);}</style><linearGradient id="a" x1="0.5" y1="17.357" x2="0.5" y2="-17.058" gradientUnits="objectBoundingBox"><stop offset="0" stop-color="#e93e3a"/><stop offset="0.357" stop-color="#d2ab66"/><stop offset="0.703" stop-color="#f3903f"/><stop offset="1" stop-color="#fdc70c"/></linearGradient></defs><path class="a" d="M72.767,208.863a.473.473,0,0,0,.13-.319.382.382,0,0,0-.036-.171.519.519,0,0,0-.094-.148.471.471,0,0,0-.639,0,.519.519,0,0,0-.094.148.376.376,0,0,0-.036.171.45.45,0,0,0,.769.319Zm0,0" transform="translate(-67.95 -196.4)"/><path class="a" d="M10.345,0h-8.1A2.252,2.252,0,0,0,0,2.249v8.1a2.252,2.252,0,0,0,2.249,2.249h.9a.45.45,0,1,0,0-.9h-.9A1.349,1.349,0,0,1,.9,10.345v-8.1A1.349,1.349,0,0,1,2.249.9h8.1a1.349,1.349,0,0,1,1.349,1.349v8.1a1.349,1.349,0,0,1-1.349,1.349h-4.5a.45.45,0,1,0,0,.9h4.5a2.252,2.252,0,0,0,2.249-2.249v-8.1A2.252,2.252,0,0,0,10.345,0Zm0,0"/><path class="a" d="M266.345,0h-8.1A2.252,2.252,0,0,0,256,2.249v8.1a2.252,2.252,0,0,0,2.249,2.249h8.1a2.252,2.252,0,0,0,2.249-2.249v-8.1A2.252,2.252,0,0,0,266.345,0Zm1.349,10.345a1.349,1.349,0,0,1-1.349,1.349h-8.1a1.349,1.349,0,0,1-1.349-1.349v-8.1A1.349,1.349,0,0,1,258.249.9h8.1a1.349,1.349,0,0,1,1.349,1.349Zm0,0" transform="translate(-241.607)"/><path class="a" d="M10.345,256h-8.1A2.252,2.252,0,0,0,0,258.249v8.1a2.252,2.252,0,0,0,2.249,2.249h8.1a2.252,2.252,0,0,0,2.249-2.249v-8.1A2.252,2.252,0,0,0,10.345,256Zm1.349,10.345a1.349,1.349,0,0,1-1.349,1.349h-8.1A1.349,1.349,0,0,1,.9,266.345v-8.1A1.349,1.349,0,0,1,2.249,256.9h8.1a1.349,1.349,0,0,1,1.349,1.349Zm0,0" transform="translate(0 -241.607)"/><path class="a" d="M274.345,268.5H271.2v-3.148a1.349,1.349,0,0,0-2.7,0V268.5h-3.148a1.349,1.349,0,0,0,0,2.7H268.5v3.148a1.349,1.349,0,1,0,2.7,0V271.2h3.148a1.349,1.349,0,1,0,0-2.7Zm0,1.8h-3.6a.45.45,0,0,0-.45.45v3.6a.45.45,0,0,1-.9,0v-3.6a.45.45,0,0,0-.45-.45h-3.6a.45.45,0,0,1,0-.9h3.6a.45.45,0,0,0,.45-.45v-3.6a.45.45,0,1,1,.9,0v3.6a.45.45,0,0,0,.45.45h3.6a.45.45,0,0,1,0,.9Zm0,0" transform="translate(-249.157 -249.157)"/></svg>