<svg xmlns="http://www.w3.org/2000/svg" viewBox="0 0 27.145 26.986"><defs><style>.a{fill:#d2ab66;}</style></defs><g transform="translate(0 -1.492)"><g transform="translate(0 27.412)"><g transform="translate(0)"><circle class="a" cx="0.533" cy="0.533" r="0.533"/></g></g><g transform="translate(13.624 13.886)"><circle class="a" cx="0.532" cy="0.532" r="0.532"/></g><g transform="translate(17.26 7.007)"><path class="a" d="M329.418,106.18a2.264,2.264,0,1,0,0,3.2A2.25,2.25,0,0,0,329.418,106.18Zm-.753,2.451a1.2,1.2,0,1,1,0-1.7A1.2,1.2,0,0,1,328.665,108.631Z" transform="translate(-325.551 -105.516)"/></g><g transform="translate(1.715 21.592)"><path class="a" d="M37.284,382.251a.532.532,0,0,0-.714.239l-.634,1.273a1.757,1.757,0,0,1-1.447.966l-.737.05a.315.315,0,0,1-.336-.336l.05-.737a1.757,1.757,0,0,1,.966-1.447l1.273-.634a.532.532,0,0,0-.475-.953l-1.273.634a2.825,2.825,0,0,0-1.554,2.327l-.05.737a1.38,1.38,0,0,0,1.377,1.474c.031,0,.063,0,.094,0l.737-.05a2.825,2.825,0,0,0,2.327-1.553l.634-1.273A.532.532,0,0,0,37.284,382.251Z" transform="translate(-32.35 -380.616)"/></g><g transform="translate(0.001 1.492)"><g transform="translate(0 0)"><path class="a" d="M26.794,1.847a1.232,1.232,0,0,0-.943-.352l-.5.032a16.06,16.06,0,0,0-11.41,5.885L12.779,8.848l-3.053-.09H9.71A9.005,9.005,0,0,0,3.3,11.413L.174,14.54a.532.532,0,0,0,.349.908l6.619.34-.27.332a.532.532,0,0,0-.054.59q.156.286.326.563l-1.57,1.863a.533.533,0,0,0-.074.571,6.931,6.931,0,0,0,3.328,3.328.532.532,0,0,0,.563-.068c.338-.274.728-.6,1.105-.914.269-.224.544-.454.8-.665q.23.138.466.268a.532.532,0,0,0,.581-.047l.363-.282.342,6.647a.532.532,0,0,0,.908.349L17.082,25.2a9,9,0,0,0,2.655-6.41V15.87l1.234-.957A16,16,0,0,0,27.147,3.044l.013-.259A1.233,1.233,0,0,0,26.794,1.847ZM1.773,14.446l2.28-2.28A7.948,7.948,0,0,1,9.7,9.823l2.231.066L7.973,14.765Zm8.04,6.789c-.278.232-.563.47-.827.687a5.847,5.847,0,0,1-2.371-2.369l1.149-1.364A12.34,12.34,0,0,0,8.9,19.51h0a12.341,12.341,0,0,0,1.465,1.26Zm8.859-2.449a7.947,7.947,0,0,1-2.343,5.657l-2.28,2.28-.318-6.192L18.672,16.7v2.09ZM26.084,2.992a14.933,14.933,0,0,1-5.767,11.08L11.97,20.55a11.271,11.271,0,0,1-1.928-1.423l2.814-2.814a.532.532,0,0,0-.753-.753L9.291,18.371A11.269,11.269,0,0,1,7.927,16.51l6.845-8.427A14.992,14.992,0,0,1,25.423,2.589l.5-.032a.168.168,0,0,1,.178.176Z" transform="translate(-0.018 -1.492)"/></g></g></g></svg>